<svg xmlns="http://www.w3.org/2000/svg" viewBox="0 0 48 48" width="48" height="48">
  <!-- Brain/Cogno Logo -->
  <defs>
    <linearGradient id="brainGrad" x1="0%" y1="0%" x2="100%" y2="100%">
      <stop offset="0%" style="stop-color:#3B82F6"/>
      <stop offset="100%" style="stop-color:#10B981"/>
    </linearGradient>
  </defs>
  
  <!-- Circle background -->
  <circle cx="24" cy="24" r="22" fill="url(#brainGrad)"/>
  
  <!-- Brain icon stylized as "C" -->
  <path d="M30 16c-3.3-3.3-8.7-3.3-12 0s-3.3 8.7 0 12c1.5 1.5 3.4 2.3 5.4 2.5v3.5c0 1.1.9 2 2 2h1c1.1 0 2-.9 2-2v-3.5c2-.2 3.9-1 5.4-2.5 3.3-3.3 3.3-8.7 0-12z" 
        fill="none" 
        stroke="white" 
        stroke-width="2.5" 
        stroke-linecap="round"/>
  
  <!-- Neural nodes -->
  <circle cx="18" cy="20" r="2" fill="white"/>
  <circle cx="30" cy="20" r="2" fill="white"/>
  <circle cx="24" cy="28" r="2" fill="white"/>
  
  <!-- Connections -->
  <line x1="18" y1="20" x2="24" y2="28" stroke="white" stroke-width="1.5" stroke-linecap="round"/>
  <line x1="30" y1="20" x2="24" y2="28" stroke="white" stroke-width="1.5" stroke-linecap="round"/>
  <line x1="18" y1="20" x2="30" y2="20" stroke="white" stroke-width="1.5" stroke-linecap="round"/>
</svg>
